PathFileType	4	(X/Y/Z)	/Users/itak/Documents/Research/Walk-IL/dataset/trc/00552_00009.trc
DataRate	CameraRate	NumFrames	NumMarkers	Units	OrigDataRate	OrigDataStartFrame	OrigNumFrames
100.000000	100.000000	4	53	mm	100.000000	138	554
Frame#	Time	RPSI			LPSI			L3			STRN			T10			C7			CLAV			RBAK			LBAK			LSHO			LUPA			LAEL			LAOL			LWTS			LWPS			LFRA			LIFD			LHPS			LHTS			RSHO			RUPA			RAEL			RAOL			RWTS			RWPS			RFRA			RIFD			RHTS			RHPS			RBHD			LFHD			RFHD			LBHD			LHIP			RHIP			RASI			LASI			LKNE			LTHI			LANK			LTIP			LTOE			LMT1			LMT5			LHEE			RKNE			RTHI			RANK			RTIP			RTOE			RMT1			RMT5			RHEE			
		X1	Y1	Z1	X2	Y2	Z2	X3	Y3	Z3	X4	Y4	Z4	X5	Y5	Z5	X6	Y6	Z6	X7	Y7	Z7	X8	Y8	Z8	X9	Y9	Z9	X10	Y10	Z10	X11	Y11	Z11	X12	Y12	Z12	X13	Y13	Z13	X14	Y14	Z14	X15	Y15	Z15	X16	Y16	Z16	X17	Y17	Z17	X18	Y18	Z18	X19	Y19	Z19	X20	Y20	Z20	X21	Y21	Z21	X22	Y22	Z22	X23	Y23	Z23	X24	Y24	Z24	X25	Y25	Z25	X26	Y26	Z26	X27	Y27	Z27	X28	Y28	Z28	X29	Y29	Z29	X30	Y30	Z30	X31	Y31	Z31	X32	Y32	Z32	X33	Y33	Z33	X34	Y34	Z34	X35	Y35	Z35	X36	Y36	Z36	X37	Y37	Z37	X38	Y38	Z38	X39	Y39	Z39	X40	Y40	Z40	X41	Y41	Z41	X42	Y42	Z42	X43	Y43	Z43	X44	Y44	Z44	X45	Y45	Z45	X46	Y46	Z46	X47	Y47	Z47	X48	Y48	Z48	X49	Y49	Z49	X50	Y50	Z50	X51	Y51	Z51	X52	Y52	Z52	X53	Y53	Z53	

139	1.38	-969.2584838867188	1019.403503417969	203.6549987792969	-962.5413208007812	1018.996032714844	69.61421203613281	-959.241455078125	1107.523315429688	130.4956512451172	-726.1617431640625	1289.528198242188	123.1209716796875	-968.4150390625	1232.812255859375	128.5607604980469	-916.3719482421875	1505.138549804688	142.8878021240234	-744.5071411132812	1400.947998046875	125.0728454589844	-987.7240600585938	1380.870361328125	228.1905517578125	-953.1295776367188	1453.748168945312	52.39628982543945	-858.0615234375	1479.238647460938	-31.64284515380859	-874.4165649414062	1354.7275390625	-113.57373046875	-859.216552734375	1131.651611328125	-137.5528869628906	-946.7196655273438	1125.943115234375	-87.27529144287109	-775.7217407226562	884.5540771484375	-90.36684417724609	-819.33203125	864.5670166015625	-163.2293548583984	-838.781494140625	1044.658569335938	-144.3736877441406	-777.6643676757812	718.3297119140625	-101.3053817749023	-813.5623168945312	804.2695922851562	-155.1527709960938	-755.5912475585938	811.422607421875	-113.9105606079102	-853.7747802734375	1462.363525390625	295.0296325683594	-871.8699340820312	1396.618286132812	362.0037536621094	-871.4248046875	1106.845703125	406.9970397949219	-927.889404296875	1090.077514648438	382.2367248535156	-739.359375	887.1646118164062	354.9839782714844	-779.3904418945312	866.239990234375	425.1368103027344	-860.0689086914062	1051.571044921875	413.0158996582031	-726.62890625	712.92041015625	359.4984436035156	-711.2220458984375	795.314453125	366.2308959960938	-761.8427734375	791.2244262695312	419.7554626464844	-839.0733032226562	1684.247314453125	202.168212890625	-680.774169921875	1704.778564453125	68.93455505371094	-700.4661865234375	1706.074829101562	211.4128570556641	-809.1715087890625	1680.97802734375	38.90785980224609	-839.2070922851562	930.2937622070312	-60.06084060668945	-850.31787109375	944.6932983398438	329.9880065917969	-761.7966918945312	969.6959838867188	269.4047546386719	-759.6206665039062	952.955078125	-6.339348316192627	-854.6195068359375	487.5675659179688	23.15739059448242	-836.3414306640625	649.4926147460938	-22.37411117553711	-950.8976440429688	31.4375171661377	61.65890884399414	-928.8231811523438	245.7013854980469	34.62539672851562	-742.2665405273438	39.43662643432617	120.910026550293	-813.468017578125	41.24936294555664	155.9102172851562	-828.1624755859375	34.50854110717773	49.29931259155273	-1021.321044921875	35.76760482788086	117.0950164794922	-807.3267822265625	499.4447326660156	299.9443359375	-809.0135498046875	790.0250854492188	331.1271362304688	-973.8024291992188	49.34321212768555	309.3531188964844	-829.2666625976562	353.3424072265625	296.3045349121094	-755.8717651367188	42.45647048950195	270.1812438964844	-819.2074584960938	43.78002166748047	228.4601287841797	-842.4180297851562	40.32914352416992	329.370849609375	-1029.281616210938	48.60531234741211	253.2587280273438	
140	1.39	-969.0637817382812	1019.082336425781	203.2544403076172	-961.8687744140625	1018.770812988281	69.178466796875	-958.69482421875	1107.712524414062	130.0923004150391	-725.0154418945312	1289.224365234375	123.1158752441406	-967.4695434570312	1233.010620117188	128.0996246337891	-914.7077026367188	1505.179809570312	142.4008026123047	-743.0856323242188	1400.634765625	124.9863128662109	-986.5906372070312	1381.181274414062	227.6317901611328	-951.4175415039062	1453.820434570312	51.87619018554688	-856.1192626953125	1479.052490234375	-32.01229476928711	-872.5565185546875	1354.585815429688	-113.9446487426758	-857.7388916015625	1131.49462890625	-137.9050750732422	-945.325927734375	1125.888549804688	-87.81111907958984	-774.3705444335938	884.427734375	-90.41825866699219	-817.8201293945312	864.4231567382812	-163.308349609375	-837.3213500976562	1044.48828125	-144.6409912109375	-776.3892211914062	718.2111206054688	-101.2991714477539	-812.18017578125	804.0750122070312	-155.2051239013672	-754.1810913085938	811.2982788085938	-113.8976974487305	-852.44677734375	1462.404541015625	294.7066345214844	-870.8916015625	1396.614379882812	361.6431884765625	-871.2783813476562	1106.966064453125	406.6295471191406	-927.58740234375	1090.104125976562	381.538330078125	-738.6101684570312	887.3965454101562	355.2866821289062	-779.1179809570312	866.3519897460938	425.3200073242188	-860.0875854492188	1051.6220703125	412.950927734375	-725.86962890625	713.1835327148438	359.9441223144531	-710.56396484375	795.5348510742188	366.7437744140625	-761.4716186523438	791.3427124023438	419.8931274414062	-837.0447998046875	1684.084106445312	201.7770385742188	-678.7861938476562	1704.314453125	68.48291015625	-698.4755249023438	1705.732299804688	211.0245971679688	-807.2295532226562	1680.688842773438	38.48721313476562	-838.2845458984375	930.0892333984375	-60.22563934326172	-850.027587890625	944.583251953125	329.7474975585938	-761.8358764648438	969.6445922851562	269.2080688476562	-758.7415161132812	952.8882446289062	-6.463603973388672	-854.1402587890625	487.4403991699219	23.00913429260254	-835.658447265625	649.34716796875	-22.48789596557617	-950.9194946289062	31.35941696166992	61.64413452148438	-928.5564575195312	245.6706848144531	34.53018188476562	-742.2655029296875	39.5241813659668	120.8769378662109	-813.5155029296875	41.23479843139648	155.8983612060547	-828.1862182617188	34.50771331787109	49.28882598876953	-1021.357604980469	35.74015426635742	117.0742034912109	-801.12451171875	499.8611755371094	299.5613098144531	-806.689697265625	790.2247314453125	330.4360046386719	-973.0901489257812	51.18056869506836	309.1780090332031	-824.2640991210938	353.5144653320312	296.1259460449219	-755.3243408203125	43.29407119750977	270.5021667480469	-818.44189453125	44.67073440551758	228.5682525634766	-842.0455932617188	41.25175857543945	329.425048828125	-1028.381713867188	50.92229843139648	252.9090118408203	
141	1.4	-968.8107299804688	1018.732238769531	202.8726959228516	-961.156982421875	1018.528930664062	68.76435852050781	-958.1343994140625	1107.92236328125	129.7151336669922	-723.8023071289062	1288.9248046875	123.1618881225586	-966.484375	1233.222534179688	127.6615219116211	-912.974853515625	1505.2255859375	141.9491424560547	-741.5982055664062	1400.3115234375	124.9708633422852	-985.415283203125	1381.505615234375	227.0897216796875	-949.6283569335938	1453.906860351562	51.37154006958008	-854.0809936523438	1478.862182617188	-32.34314727783203	-870.5684204101562	1354.440307617188	-114.2840728759766	-856.1076049804688	1131.32568359375	-138.2164154052734	-943.80712890625	1125.819213867188	-88.34633636474609	-772.8414306640625	884.3543701171875	-90.39854431152344	-816.1043701171875	864.2584228515625	-163.3172302246094	-835.7056274414062	1044.303588867188	-144.8617095947266	-775.0914916992188	717.99853515625	-101.1185073852539	-810.5880737304688	803.8818969726562	-155.1844024658203	-752.7471313476562	811.0799560546875	-113.710693359375	-851.0971069335938	1462.431518554688	294.4095153808594	-869.9053955078125	1396.602783203125	361.3098449707031	-871.2252807617188	1107.090942382812	406.2882995605469	-927.301513671875	1090.1162109375	380.792236328125	-737.8897705078125	887.6306762695312	355.7845458984375	-778.9033203125	866.4635009765625	425.6153564453125	-860.2095336914062	1051.67236328125	412.948486328125	-725.0655517578125	713.43310546875	360.5792541503906	-709.8843994140625	795.7852783203125	367.5046691894531	-761.1568603515625	791.4750366210938	420.1852416992188	-834.9364013671875	1683.914184570312	201.4292755126953	-676.7129516601562	1703.832275390625	68.07929992675781	-696.4022827148438	1705.389404296875	210.6781616210938	-805.2064208984375	1680.390258789062	38.10531234741211	-837.2864379882812	929.8765258789062	-60.3580207824707	-849.6336669921875	944.4943237304688	329.5010986328125	-761.7800903320312	969.6242065429688	269.038818359375	-757.8187255859375	952.8068237304688	-6.589200973510742	-853.60546875	487.3164672851562	22.89773368835449	-834.9562377929688	649.1937255859375	-22.58340263366699	-950.9478149414062	31.28839492797852	61.62494277954102	-928.2680053710938	245.6491851806641	34.44703674316406	-742.244384765625	39.61855316162109	120.8391723632812	-813.5531616210938	41.21360015869141	155.8897705078125	-828.2054443359375	34.50608825683594	49.27606201171875	-1021.392211914062	35.71895599365234	117.0532455444336	-794.7931518554688	500.3625183105469	299.2502136230469	-804.2106323242188	790.4865112304688	329.7384643554688	-972.0646362304688	53.16902160644531	308.9561462402344	-819.1070556640625	353.8262939453125	295.983154296875	-754.444580078125	44.27327346801758	270.836669921875	-817.313720703125	45.70629501342773	228.6700439453125	-841.3261108398438	42.3361701965332	329.5009155273438	-1027.126586914062	53.35129547119141	252.4841461181641	
142	1.41	-968.4732666015625	1018.369812011719	202.5080871582031	-960.4059448242188	1018.280151367188	68.37986755371094	-957.5457763671875	1108.1494140625	129.3546752929688	-722.5126342773438	1288.623901367188	123.2515182495117	-965.4505004882812	1233.438842773438	127.2417678833008	-911.176025390625	1505.27783203125	141.5342102050781	-740.0452270507812	1399.984008789062	125.0206680297852	-984.1923828125	1381.840698242188	226.5631866455078	-947.7644653320312	1454.009887695312	50.88332366943359	-851.9491577148438	1478.672241210938	-32.63438415527344	-868.4520263671875	1354.2900390625	-114.5887298583984	-854.3118286132812	1131.145751953125	-138.4814453125	-942.1524658203125	1125.734619140625	-88.87564849853516	-771.1478271484375	884.3115234375	-90.29769897460938	-814.1890869140625	864.0713500976562	-163.2626800537109	-833.9254150390625	1044.10888671875	-145.0331115722656	-773.8471069335938	717.6431884765625	-100.7214736938477	-808.7760620117188	803.6920166015625	-155.0948791503906	-751.3648071289062	810.71875	-113.3065795898438	-849.732421875	1462.439575195312	294.1446838378906	-868.9132080078125	1396.585083007812	360.9989624023438	-871.25146484375	1107.214965820312	405.9657897949219	-927.0206298828125	1090.116821289062	379.9980163574219	-737.2131958007812	887.8523559570312	356.5023193359375	-778.7520751953125	866.5750122070312	426.0219116210938	-860.4002685546875	1051.723388671875	412.9769592285156	-724.2136840820312	713.6663208007812	361.4197998046875	-709.1883544921875	796.0574340820312	368.5256042480469	-760.9038696289062	791.62060546875	420.6492004394531	-832.7478637695312	1683.752197265625	201.1251220703125	-674.5518798828125	1703.336791992188	67.72305297851562	-694.2323608398438	1705.053955078125	210.363525390625	-803.0941162109375	1680.089111328125	37.76829147338867	-836.2197875976562	929.6668090820312	-60.46294784545898	-849.1160888671875	944.4452514648438	329.2507019042969	-761.5799560546875	969.6686401367188	268.8927917480469	-756.8523559570312	952.706298828125	-6.721232414245605	-853.0237426757812	487.1956176757812	22.82722473144531	-834.239501953125	649.0286865234375	-22.65739440917969	-950.9782104492188	31.23028182983398	61.60293960571289	-927.9694213867188	245.6361999511719	34.38871765136719	-742.2096557617188	39.71369552612305	120.7985229492188	-813.5840454101562	41.18692779541016	155.8830261230469	-828.2206420898438	34.50417327880859	49.26274108886719	-1021.424560546875	35.70373153686523	117.0335998535156	-788.4020385742188	500.9552917480469	299.0244140625	-801.5969848632812	790.8253784179688	329.0530090332031	-970.6211547851562	55.25396728515625	308.6846313476562	-813.8170776367188	354.2809753417969	295.87744140625	-753.11767578125	45.38279342651367	271.1471557617188	-815.7290649414062	46.86235427856445	228.7430877685547	-840.1431274414062	43.58052062988281	329.5726013183594	-1025.426147460938	55.81195449829102	251.9941711425781	
